# xmcd
#
# Track frame offsets:
#	150
#	13275
#	25485
#	39188
#	49936
#	63346
#	75496
#	87384
#	100457
#	111940
#
# Disc length: 1639 seconds
#
# Revision: 1
# Processed by: cddbd v1.5.2PL0 Copyright (c) Steve Scherf et al.
# Submitted via: audiograbber 1.83.01
#
DISCID=7e06650a
DTITLE=Glen Campbell - Greatest Hits
DYEAR=1971
DGENRE=Country
TTITLE0=Gentle On My Mind
TTITLE1=I Wanna Live
TTITLE2=Wichata Lineman
TTITLE3=Try A Little Kindness
TTITLE4=Honey Come Back
TTITLE5=By The Time I Get To Phoenix
TTITLE6=Galveston
TTITLE7=Where's The Playground Susie
TTITLE8=Dreams Of The Everyday Housewife
TTITLE9=Burning Bridges
EXTD=
EXTT0=
EXTT1=
EXTT2=
EXTT3=
EXTT4=
EXTT5=
EXTT6=
EXTT7=
EXTT8=
EXTT9=
PLAYORDER=
